<?xml version="1.0" encoding="UTF-8" standalone="no"?>
<!DOCTYPE svg PUBLIC "-//W3C//DTD SVG 1.1//EN" "http://www.w3.org/Graphics/SVG/1.1/DTD/svg11.dtd">
<svg width="100%" height="100%" viewBox="0 0 47 47" version="1.1" xmlns="http://www.w3.org/2000/svg" xmlns:xlink="http://www.w3.org/1999/xlink" xml:space="preserve" xmlns:serif="http://www.serif.com/" style="fill-rule:evenodd;clip-rule:evenodd;stroke-linejoin:round;stroke-miterlimit:2;">
    <g transform="matrix(1.33333,0,0,1.33333,0,0)">
        <g transform="matrix(1.30189,0,0,1.30189,-6.85571,-5.9306)">
            <path d="M18.708,6.699C24.944,6.699 30.006,11.762 30.006,17.997C30.006,24.233 24.944,29.296 18.708,29.296C12.472,29.296 7.41,24.233 7.41,17.997C7.41,11.762 12.472,6.699 18.708,6.699ZM17.18,12.103C13.08,12.103 9.757,15.328 9.757,19.307C9.757,23.284 13.083,26.512 17.18,26.512C21.279,26.512 24.603,23.286 24.603,19.307L17.18,19.307L17.18,12.103Z" style="fill:url(#_Linear1);"/>
        </g>
    </g>
    <defs>
        <linearGradient id="_Linear1" x1="0" y1="0" x2="1" y2="0" gradientUnits="userSpaceOnUse" gradientTransform="matrix(-20.5228,19.977,-19.977,-20.5228,28.7511,9.04599)"><stop offset="0" style="stop-color:rgb(103,65,253);stop-opacity:1"/><stop offset="0.23" style="stop-color:rgb(50,204,242);stop-opacity:1"/><stop offset="0.46" style="stop-color:rgb(35,230,192);stop-opacity:1"/><stop offset="0.73" style="stop-color:rgb(55,91,99);stop-opacity:1"/><stop offset="1" style="stop-color:rgb(0,164,203);stop-opacity:1"/></linearGradient>
    </defs>
</svg>
